<?xml version="1.0" encoding="iso-8859-1"?>
<!-- Generator: Adobe Illustrator 18.1.1, SVG Export Plug-In . SVG Version: 6.00 Build 0)  -->
<svg version="1.1" id="Capa_1" xmlns="http://www.w3.org/2000/svg" xmlns:xlink="http://www.w3.org/1999/xlink" x="0px" y="0px"
	 viewBox="0 0 450 450" style="enable-background:new 0 0 450 450;" xml:space="preserve">
<g>
	<g id="Layer_1_42_">
		<g>
			<path d="M340.699,97.486c0.747-3.935,1.353-7.882,1.813-11.86c0.349-3.018,0.811-6.188,0.682-9.235
				c-0.257-6.108-4.082-11.718-9.683-14.175c-1.375-0.603-2.834-1.011-4.322-1.211c-4.906-0.663-9.934,1.004-13.477,4.461
				c-3.33,3.247-4.438,7.269-5.045,11.721c-1.748,12.831-5.654,25.126-10.216,37.208c-4.283-15.774-9.632-31.268-17.198-45.787
				c-1.129-2.167-2.15-4.457-3.726-6.346c-1.973-2.365-4.62-4.137-7.553-5.074c-6.021-1.923-12.786-0.079-16.984,4.652
				c-4.054,4.568-5.193,11.209-2.882,16.863c2.362,5.778,4.994,11.394,6.894,17.358c3.235,10.159,5.697,20.468,7.645,30.894
				c-11.445-3.279-40.056-4.743-51.986-5.192c-18.044-0.68-90.775,7.688-126.568,38.276c-23.058,19.706-11.971,55.47-1.508,79.676
				c1.263,2.922,2.59,5.817,3.997,8.674c1.215,2.469,2.437,4.897,4.292,6.963c4.039,4.496,10.04,6.985,16.075,6.685
				c12.872-0.64,22.063-13.583,18.414-25.939c-1.024-3.468-2.732-6.789-3.965-10.195c-1.708-4.723-3.211-9.528-4.398-14.41
				c-1.221-5.024-2.248-10.261-2.14-15.453c0.021-1.027,0.08-2.066,0.275-3.077c2.757-1.305,8.769-3.225,9.786-3.462
				c-4.665,15.735-0.906,32.89,4.262,48.012c2.341,6.851,5.111,13.558,8.221,20.095c2.555,5.372,5.235,10.33,10.671,13.286
				c11.283,6.135,25.784-0.011,29.207-12.395c0.802-2.901,0.95-5.975,0.421-8.938c-0.5-2.801-1.763-5.316-2.802-7.938
				c-2.805-7.076-4.624-14.515-6.753-21.828c-2.231-7.667-1.257-14.321-0.989-15.633c1.079-5.271,22.516-29.5,100.774-4.413
				c33.038,10.591,51.459-47.417,53.782-53.238C332.046,130.646,337.511,114.295,340.699,97.486z"/>
			<path d="M374.699,202.628c-2.494-11.833-10.862-21.962-22.032-26.609c-11.429-4.754-24.755-3.437-35.021,3.48
				c-10.266,6.918-16.486,18.776-16.373,31.159c0.116,12.097,6.369,23.652,16.394,30.402c4.1,2.761,8.745,4.67,13.591,5.615
				l0.051,0.011c12.008,2.333,24.643-1.536,33.305-10.175C373.4,227.741,377.256,214.776,374.699,202.628z"/>
			<path d="M272.453,211.146c-5.384,0-9.748,4.364-9.748,9.748v50.153l-53.729-72.156c-9.935,1.208-16,4.068-19.49,6.47
				l73.219,98.33v136.561c0,5.384,4.364,9.748,9.748,9.748c5.384,0,9.749-4.364,9.749-9.748V220.895
				C282.202,215.511,277.837,211.146,272.453,211.146z"/>
			<path d="M87.609,152.628c4.439-3.794,9.345-7.247,14.574-10.393V88.116l29.939,40.207c6.538-2.354,13.175-4.392,19.727-6.151
				l-49.666-66.7V9.748c0-5.384-4.365-9.748-9.749-9.748s-9.748,4.364-9.748,9.748v147.747
				C84.192,155.784,85.823,154.155,87.609,152.628z"/>
		</g>
	</g>
</g>
<g>
</g>
<g>
</g>
<g>
</g>
<g>
</g>
<g>
</g>
<g>
</g>
<g>
</g>
<g>
</g>
<g>
</g>
<g>
</g>
<g>
</g>
<g>
</g>
<g>
</g>
<g>
</g>
<g>
</g>
</svg>
